<svg xmlns="http://www.w3.org/2000/svg" viewBox="0 0 16 16" shape-rendering="crispEdges">
  <rect x="10" y="9" width="2" height="2" fill="#8B6914"/>
  <rect x="9" y="10" width="2" height="2" fill="#8B6914"/>
  <rect x="8" y="11" width="2" height="2" fill="#8B6914"/>
  <rect x="7" y="12" width="2" height="2" fill="#8B6914"/>
  <rect x="6" y="13" width="2" height="2" fill="#8B6914"/>
  <rect x="5" y="14" width="2" height="2" fill="#8B6914"/>
  <rect x="0" y="2" width="3" height="2" fill="#4EEAFF"/>
  <rect x="2" y="3" width="3" height="2" fill="#4EEAFF"/>
  <rect x="4" y="4" width="3" height="2" fill="#4EEAFF"/>
  <rect x="6" y="5" width="3" height="2" fill="#4EEAFF"/>
  <rect x="8" y="6" width="3" height="2" fill="#4EEAFF"/>
  <rect x="9" y="7" width="3" height="2" fill="#4EEAFF"/>
  <rect x="10" y="8" width="2" height="2" fill="#4EEAFF"/>
  <rect x="1" y="2" width="1" height="1" fill="#88F0FF"/>
  <rect x="3" y="4" width="1" height="1" fill="#88F0FF"/>
</svg>
